Coordinates
version=1
nRows=12
nColumns=42
inDegrees=yes

Units are S.I. units (second, meters, Newtons, ...)
If the header above contains a line with 'inDegrees', this indicates whether rotational values are in degrees (yes) or radians (no).

endheader
time	pelvis_tilt	pelvis_list	pelvis_rotation	pelvis_tx	pelvis_ty	pelvis_tz	hip_flexion_r	hip_adduction_r	hip_rotation_r	knee_angle_r	knee_adduction_r	knee_angle_r_beta	ankle_angle_r	subtalar_angle_r	mtp_angle_r	hip_flexion_l	hip_adduction_l	hip_rotation_l	knee_angle_l	knee_adduction_l	knee_angle_l_beta	ankle_angle_l	subtalar_angle_l	mtp_angle_l	lumbar_extension	lumbar_bending	lumbar_rotation	arm_flex_r	arm_add_r	arm_rot_r	elbow_flex_r	pro_sup_r	wrist_flex_r	wrist_dev_r	arm_flex_l	arm_add_l	arm_rot_l	elbow_flex_l	pro_sup_l	wrist_flex_l	wrist_dev_l
      0.00000000	     -5.55268018	     -2.94380474	      2.67870702	     -2.01736014	      0.89221280	     -0.18295795	     21.70550059	     -5.46921833	      2.89570411	     53.62912093	     16.67702841	      0.93600474	      0.00000000	      2.58205586	     -9.57782002	      6.52013910	    -10.30234631	     -4.10286651	      6.94641630	     22.20988690	      0.12123784	      7.18911704	      2.57755995	     -9.57782002	     -8.37868145	      2.34380504	     -2.38688989	     -5.51055738	    -14.09163765	     -5.33364774	     18.81891069	     90.00000001	      0.00000000	      0.00000000	     -2.40501934	    -13.21533750	      1.26406198	     24.20879815	     90.00000001	      0.00000000	      0.00000000
      0.01000000	     -4.89190129	     -2.78241467	      3.47681948	     -2.00701696	      0.89253462	     -0.18530422	     21.64110225	     -6.00875728	     -3.28873737	     46.91796605	     12.46555632	      0.81887299	      9.77797230	    -13.47119724	     -9.37563932	      5.07662614	     -9.86849658	     -4.32569898	      6.94911801	     21.90611438	      0.12128499	      8.01302253	      4.10869143	     -9.37563932	     -8.97347974	      2.36164354	     -2.92463942	     -5.58841351	    -14.03026330	     -5.73395531	     18.76453088	     90.00000001	      0.00000000	      0.00000000	     -1.94348521	    -13.48193822	      1.69061433	     24.87796358	     90.00000001	      0.00000000	      0.00000000
      0.02000000	     -4.79198395	     -2.78529387	      4.03978254	     -1.99781633	      0.89212848	     -0.18688781	     22.24344302	     -6.10848530	     -4.18466369	     44.64853524	     12.17124482	      0.77926395	      9.94309759	    -13.82012002	     -9.33552341	      4.35386254	     -9.67034586	     -4.13234690	      6.87249664	     21.69295178	      0.11994769	      8.55554397	      4.56645583	     -9.33552341	     -9.06061358	      2.48458716	     -3.27688329	     -5.57564774	    -13.98119149	     -5.88436309	     18.62763367	     90.00000001	      0.00000000	      0.00000000	     -1.45684994	    -13.71665201	      1.95534137	     25.49301689	     90.00000001	      0.00000000	      0.00000000
      0.03000000	     -4.48595639	     -2.94546898	      4.61063806	     -1.98843701	      0.89189276	     -0.18817102	     22.47137676	     -5.95111351	     -5.05284102	     42.10129396	     11.87894976	      0.73480620	      9.65334879	    -14.31876490	     -9.28439078	      3.38181617	     -9.82755472	     -3.90149804	      6.73805761	     21.77318516	      0.11760129	      9.22630152	      5.04657146	     -9.28439078	     -9.36664960	      2.78452598	     -3.62281916	     -5.50245488	    -13.90592731	     -6.23165074	     18.48816573	     90.00000001	      0.00000000	      0.00000000	     -0.98106389	    -13.98574771	      2.36718693	     26.09449285	     90.00000001	      0.00000000	      0.00000000
      0.04000000	     -4.61082166	     -2.76005203	      4.80849088	     -1.97941113	      0.89091220	     -0.18924850	     23.40962799	     -6.12268042	     -5.86540412	     39.94576395	     11.35190534	      0.69718510	      9.44255906	    -14.13150267	     -9.26043143	      2.89575709	     -9.41938117	     -4.07112790	      6.83381094	     21.49591239	      0.11927250	      9.60121146	      5.12834185	     -9.26043143	     -9.26539800	      2.65233098	     -3.65036243	     -5.59780807	    -13.81733683	     -6.31263028	     18.54957556	     90.00000001	      0.00000000	      0.00000000	     -0.50590140	    -14.16853823	      2.48594744	     26.60707655	     90.00000001	      0.00000000	      0.00000000
      0.05000000	     -4.17133644	     -3.14411093	      5.38368474	     -1.97001782	      0.89066971	     -0.19026527	     23.25786815	     -5.67038677	     -6.61588487	     36.92814673	     11.19479163	      0.64451775	      8.65764657	    -14.64689905	     -9.19199472	      1.84489492	     -9.95518026	     -3.59312589	      6.71636806	     21.76258854	      0.11722274	     10.39162901	      5.50386222	     -9.19199472	     -9.73081828	      3.22404560	     -3.92260647	     -5.47512680	    -13.73507832	     -6.87372778	     18.31882681	     90.00000001	      0.00000000	      0.00000000	      0.00787771	    -14.43155841	      3.04672249	     27.19228480	     90.00000001	      0.00000000	      0.00000000
      0.06000000	     -4.16647839	     -3.14420524	      5.65538080	     -1.96097879	      0.88968181	     -0.19116699	     23.76340408	     -5.63561970	     -7.23274472	     34.21830033	     10.95325241	      0.59722201	      7.90183943	    -14.52059600	     -9.12831149	      1.29339683	     -9.86308007	     -3.39882155	      6.80795767	     21.67276569	      0.11882128	     10.99790324	      5.53780100	     -9.12831149	     -9.77685502	      3.32234963	     -4.01025865	     -5.46055670	    -13.65865801	     -7.13365414	     18.25191037	     90.00000001	      0.00000000	      0.00000000	      0.45927518	    -14.65150924	      3.31395627	     27.68278056	     90.00000001	      0.00000000	      0.00000000
      0.07000000	     -4.31000917	     -2.97676930	      5.89754478	     -1.95207155	      0.88835799	     -0.19220677	     24.42146613	     -5.82655637	     -7.80410784	     31.53676460	     10.74399296	      0.55042038	      6.99799252	    -13.81467757	     -9.09050627	      0.93163312	     -9.53962312	     -3.24212752	      6.98884969	     21.54514090	      0.12197844	     11.62857837	      5.50941109	     -9.09050627	     -9.69248021	      3.24139384	     -4.12264542	     -5.48037313	    -13.59301400	     -7.24483674	     18.24102608	     90.00000001	      0.00000000	      0.00000000	      0.89219626	    -14.84235421	      3.51597556	     28.18363548	     90.00000001	      0.00000000	      0.00000000
      0.08000000	     -4.48511441	     -2.79399359	      6.04696629	     -1.94311736	      0.88692611	     -0.19302872	     25.06866869	     -5.95636900	     -8.41731746	     28.77598618	     10.43089196	      0.50223570	      6.00851020	    -13.01754337	     -9.06242336	      0.59750107	     -9.14733967	     -3.08046355	      7.18413269	     21.27984064	      0.12538677	     12.20847436	      5.45521524	     -9.06242336	     -9.58602856	      3.13131388	     -4.19347465	     -5.47558276	    -13.50970364	     -7.33668407	     18.26144148	     90.00000001	      0.00000000	      0.00000000	      1.25190773	    -15.05097970	      3.70525204	     28.64255197	     90.00000001	      0.00000000	      0.00000000
      0.09000000	     -4.67092200	     -2.57531989	      6.21141683	     -1.93397024	      0.88536088	     -0.19377978	     25.62539211	     -6.12111990	     -9.02898064	     25.92855678	     10.15813089	      0.45253869	      4.96689983	    -12.13089532	     -9.03739520	      0.25557632	     -8.78052306	     -2.94767458	      7.39391914	     21.13542271	      0.12904823	     12.80994492	      5.36328796	     -9.03739520	     -9.44465004	      2.97303645	     -4.29324354	     -5.50441017	    -13.40607547	     -7.42663356	     18.26710225	     90.00000001	      0.00000000	      0.00000000	      1.57904226	    -15.27579940	      3.89445713	     29.06137668	     90.00000001	      0.00000000	      0.00000000
      0.10000000	     -4.35496314	     -2.88635243	      6.56233482	     -1.92445179	      0.88444740	     -0.19425647	     25.14914157	     -5.61431865	     -9.21261259	     22.10564737	     10.15486586	      0.38581633	      3.62799421	    -12.13751337	     -8.97631616	     -0.61815074	     -9.34046333	     -2.43452901	      7.43528282	     21.53021550	      0.12977017	     13.45862146	      5.10215489	     -8.97631616	     -9.80858035	      3.45976238	     -4.38766046	     -5.41336225	    -13.31166935	     -7.82798493	     18.00515074	     90.00000001	      0.00000000	      0.00000000	      2.01650497	    -15.47527658	      4.31082203	     29.40881424	     90.00000001	      0.00000000	      0.00000000
      0.11000000	     -4.61879370	     -2.57529852	      6.69963021	     -1.91527644	      0.88260612	     -0.19500840	     25.61147973	     -5.90952927	     -9.53566962	     19.10308101	     10.07046284	      0.33341166	      2.38152528	    -11.13894271	     -8.93920960	     -0.88814244	     -8.88786306	     -2.19365510	      7.64015181	     21.43524946	      0.13334580	     14.01022625	      4.93071668	     -8.93920960	     -9.61227225	      3.21581650	     -4.48425676	     -5.46406708	    -13.20587730	     -7.90345958	     18.04322237	     90.00000001	      0.00000000	      0.00000000	      2.29593224	    -15.67364701	      4.45066663	     29.78583429	     90.00000001	      0.00000000	      0.00000000
